<?xml version="1.0" encoding="UTF-8" standalone="no"?>
<!DOCTYPE svg PUBLIC "-//W3C//DTD SVG 1.1//EN" "http://www.w3.org/Graphics/SVG/1.1/DTD/svg11.dtd">
<!-- Created with Vectornator (http://vectornator.io/) -->
<svg height="100%" stroke-miterlimit="10" style="fill-rule:nonzero;clip-rule:evenodd;stroke-linecap:round;stroke-linejoin:round;" version="1.1" viewBox="0 0 6144 3160" width="100%" xml:space="preserve" xmlns="http://www.w3.org/2000/svg" xmlns:vectornator="http://vectornator.io" xmlns:xlink="http://www.w3.org/1999/xlink">
<defs/>
<clipPath id="ArtboardFrame">
<rect height="3160" width="6144" x="0" y="0"/>
</clipPath>
<g clip-path="url(#ArtboardFrame)" id="Layer-2" vectornator:layerName="Layer 2">
<path d="M-259.383-363.923L6433.41-363.923L6433.41 3689.3L-259.383 3689.3L-259.383-363.923Z" fill="#ffffff" fill-opacity="0.752178" fill-rule="nonzero" opacity="1" stroke="#0076ff" stroke-linecap="butt" stroke-linejoin="round" stroke-width="0.1"/>
</g>
<g clip-path="url(#ArtboardFrame)" id="Layer-1" vectornator:layerName="Layer 1">
<path d="M3844.95 345.952C3844.95-36.5683 4155.04-346.662 4537.56-346.662C4920.08-346.662 5230.18-36.5683 5230.18 345.952C5230.18 728.473 4920.08 1038.57 4537.56 1038.57C4155.04 1038.57 3844.95 728.473 3844.95 345.952Z" fill="#ff3333" fill-opacity="0.530376" fill-rule="nonzero" opacity="1" stroke="#0076ff" stroke-linecap="butt" stroke-linejoin="round" stroke-width="0.1"/>
<path d="M284.472 2237.98C284.472 1840.19 606.945 1517.72 1004.74 1517.72C1402.53 1517.72 1725 1840.19 1725 2237.98C1725 2635.78 1402.53 2958.25 1004.74 2958.25C606.945 2958.25 284.472 2635.78 284.472 2237.98Z" fill="#ff3939" fill-opacity="0.752178" fill-rule="nonzero" opacity="1" stroke="#0076ff" stroke-linecap="butt" stroke-linejoin="round" stroke-width="0.1"/>
<path d="M1911.35 1815.55C1911.35 1540.2 2134.57 1316.99 2409.92 1316.99C2685.27 1316.99 2908.49 1540.2 2908.49 1815.55C2908.49 2090.91 2685.27 2314.12 2409.92 2314.12C2134.57 2314.12 1911.35 2090.91 1911.35 1815.55Z" fill="#ffc58a" fill-rule="nonzero" opacity="1" stroke="#0076ff" stroke-linecap="butt" stroke-linejoin="round" stroke-width="0.1"/>
<path d="M3550.38 1366.58C3550.38 958.602 3881.11 627.871 4289.09 627.871C4697.06 627.871 5027.79 958.602 5027.79 1366.58C5027.79 1774.55 4697.06 2105.28 4289.09 2105.28C3881.11 2105.28 3550.38 1774.55 3550.38 1366.58Z" fill="#eb493a" fill-opacity="0.804126" fill-rule="nonzero" opacity="1" stroke="#0076ff" stroke-linecap="butt" stroke-linejoin="round" stroke-width="0.1"/>
<path d="M796.775 1137.75C796.775 799.798 1070.74 525.83 1408.7 525.83C1746.66 525.83 2020.63 799.798 2020.63 1137.75C2020.63 1475.71 1746.66 1749.68 1408.7 1749.68C1070.74 1749.68 796.775 1475.71 796.775 1137.75Z" fill="#eb493a" fill-opacity="0.602185" fill-rule="nonzero" opacity="1" stroke="#0076ff" stroke-linecap="butt" stroke-linejoin="round" stroke-width="0.1"/>
<path d="M828.843 2723.71C828.843 2388.42 1100.65 2116.62 1435.93 2116.62C1771.22 2116.62 2043.02 2388.42 2043.02 2723.71C2043.02 3058.99 1771.22 3330.8 1435.93 3330.8C1100.65 3330.8 828.843 3058.99 828.843 2723.71Z" fill="#ffba43" fill-opacity="0.773525" fill-rule="nonzero" opacity="1" stroke="#0076ff" stroke-linecap="butt" stroke-linejoin="round" stroke-width="0.1"/>
<path d="M3354.89 2780.25C3354.89 2460.78 3613.87 2201.8 3933.35 2201.8C4252.82 2201.8 4511.8 2460.78 4511.8 2780.25C4511.8 3099.72 4252.82 3358.71 3933.35 3358.71C3613.87 3358.71 3354.89 3099.72 3354.89 2780.25Z" fill="#e57a70" fill-rule="nonzero" opacity="1" stroke="#0076ff" stroke-linecap="butt" stroke-linejoin="round" stroke-width="0.1"/>
<path d="M2205.91 520.79C2205.91 195.413 2469.68-68.3569 2795.05-68.3569C3120.43-68.3569 3384.2 195.413 3384.2 520.79C3384.2 846.167 3120.43 1109.94 2795.05 1109.94C2469.68 1109.94 2205.91 846.167 2205.91 520.79Z" fill="#f8a931" fill-rule="nonzero" opacity="1" stroke="#0076ff" stroke-linecap="butt" stroke-linejoin="round" stroke-width="0.1"/>
<path d="M4845.37 2815.64C4845.37 2482.15 5115.72 2211.8 5449.22 2211.8C5782.71 2211.8 6053.06 2482.15 6053.06 2815.64C6053.06 3149.13 5782.71 3419.48 5449.22 3419.48C5115.72 3419.48 4845.37 3149.13 4845.37 2815.64Z" fill="#ff813b" fill-rule="nonzero" opacity="1" stroke="#0076ff" stroke-linecap="butt" stroke-linejoin="round" stroke-width="0.1"/>
<path d="M4936.38 459.228C4936.38 72.1055 5250.2-241.719 5637.33-241.719C6024.45-241.719 6338.27 72.1055 6338.27 459.228C6338.27 846.35 6024.45 1160.17 5637.33 1160.17C5250.2 1160.17 4936.38 846.35 4936.38 459.228Z" fill="#ff793b" fill-rule="nonzero" opacity="1" stroke="#0076ff" stroke-linecap="butt" stroke-linejoin="round" stroke-width="0.1"/>
<path d="M-167.43 385.678C-167.43 1.06522 144.36-310.725 528.973-310.725C913.586-310.725 1225.38 1.06522 1225.38 385.678C1225.38 770.292 913.586 1082.08 528.973 1082.08C144.36 1082.08-167.43 770.292-167.43 385.678Z" fill="#ff6133" fill-rule="nonzero" opacity="1" stroke="#0076ff" stroke-linecap="butt" stroke-linejoin="round" stroke-width="0.1"/>
<path d="M2425.62 3167.24C2425.62 2855.82 2678.07 2603.37 2989.49 2603.37C3300.9 2603.37 3553.36 2855.82 3553.36 3167.24C3553.36 3478.66 3300.9 3731.11 2989.49 3731.11C2678.07 3731.11 2425.62 3478.66 2425.62 3167.24Z" fill="#ff8433" fill-opacity="0.733071" fill-rule="nonzero" opacity="1" stroke="#0076ff" stroke-linecap="butt" stroke-linejoin="round" stroke-width="0.1"/>
</g>
</svg>
